<svg xmlns="http://www.w3.org/2000/svg" xmlns:xlink="http://www.w3.org/1999/xlink" width="1826.635" height="504.989" viewBox="0 0 1826.635 504.989">
  <defs>
    <clipPath id="clip-path">
      <rect id="Rectangle_280" data-name="Rectangle 280" width="1826.635" height="504.989" fill="none" stroke="#dcba7b" stroke-width="1"/>
    </clipPath>
  </defs>
  <g id="Group_436" data-name="Group 436" transform="translate(-178.248)">
    <g id="Group_466" data-name="Group 466">
      <g id="Group_399" data-name="Group 399" transform="translate(178.248)" clip-path="url(#clip-path)">
        <path id="Path_41907" data-name="Path 41907" d="M803.562,47.289H718.048v6.985h8.788c23.428,0,24.6,21.831,24.6,34.053V248.993L619.068,47.289H547.613v6.985h6.441C577.482,54.274,581,74.357,581,91.819v219.17c0,12.226-2.928,24.448-26.356,24.448h-3.57c-15.229,0-27.526-4.8-32.213-21.391L438.033,39.428a166.3,166.3,0,0,1-48.026,19.211s2.343,8.733,5.86,21.395L335.539,311.425c-4.041,12.04-9.415,21.144-27.313,23.437-4.056-54.466-36.983-93.992-86.836-136.455-41.582-35.31-99.566-76.225-99.566-127.787,0-36.993,27.526-53.245,53.882-53.245,43.344,0,69.111,42.6,71.455,81.829H257.7V0H247.161c-1.755,9.529-7.03,12.891-15.229,12.891-13.471,0-33.967-8.406-55.641-8.406-56.226,0-94.879,42.034-94.879,91.917,0,109.293,183.906,144.043,183.906,277.434,0,67.259-46.857,119.941-119.481,119.941S17.572,440.532,17.572,372.154c0-51.563,32.213-102.006,89.023-102.006,37.484,0,63.255,22.42,63.255,54.928,0,23.539-14.055,36.993-41,43.157,14.055,17.935,27.526,26.341,43.925,26.341,29.284,0,54.471-24.658,54.471-62.211,0-47.641-40.416-89.679-103.671-89.679C49.2,242.684,0,299.854,0,367.109c0,71.744,55.641,137.879,145.253,137.879,93.125,0,163.406-71.74,163.406-158.616,0-1.192-.1-2.333-.125-3.514h73.274v-7.421c-26.356-.872-28.7-10.041-27.526-17.026l16.984-70.726h71.455c11.712,40.6,19.915,71.6,19.915,71.162,2.339,13.1-2.928,16.59-22.843,16.59v7.421H632.538v-7.421h-4.686c-22.84,0-27.526-12.222-27.526-24.448V115.4l154.037,227.46h16.4V88.327c0-12.222,1.758-34.053,25.187-34.053h7.615ZM374.192,236.331,404.65,111.466l35.141,124.865Z" fill="none" stroke="#dcba7b" stroke-width="1"/>
        <path id="Path_41908" data-name="Path 41908" d="M337.5,174.976h4.1c22.843,0,22.843,8.733,22.843,17.9V284.56c0,13.1-15.81,22.267-35.141,22.267-32.216,0-60.327-17.9-60.327-140.58,0-101.73,31.043-144.952,69.7-144.952,29.284,0,44.51,28.38,52.709,61.56h9.961V12.13h-9.961c-2.343,6.113-8.784,6.113-14.64,6.113-12.886,0-23.428-6.553-38.657-6.553-69.111,0-127.1,70.73-127.1,150.625,0,77.279,45.687,154.553,118.311,154.553,26.945,0,38.657-13.97,58.569-13.97,6.441,0,19.915,3.056,19.915,9.169h10.539V192.875c0-8.729.589-17.9,22.844-17.9h3.517v-7.857H337.5Z" transform="translate(590.3 30.794)" fill="none" stroke="#dcba7b" stroke-width="1"/>
        <path id="Path_41909" data-name="Path 41909" d="M600.549,278.022V41.389c0-8.733.585-21.395,22.844-21.395h2.924V13.013H439.023v6.981h5.271c22.84,0,25.183,15.718,25.183,27.944V250.954c0,31-22.84,48.9-56.81,48.9s-61.5-11.35-61.5-52.824V41.825c0-8.733.585-21.831,20.5-21.831h3.513V13.013H268v6.981h4.1c24.6,0,24.6,13.1,24.6,21.831V237.856c0,63.741,62.671,75.527,110.7,75.527,50.958,0,82-25.756,82-59.373V47.938c0-12.226,3.513-27.944,25.771-27.944h6.316c24.6,0,24.6,12.662,24.6,21.395V278.022c0,10.478-1.17,23.139-23.428,23.139h-7.026v7.421H627.491v-7.421h-5.272c-21.085,0-21.67-12.662-21.67-23.139" transform="translate(749.806 34.279)" fill="none" stroke="#dcba7b" stroke-width="1"/>
        <path id="Path_41910" data-name="Path 41910" d="M485.082,306.827c-37.484,0-65.014-18.775-65.014-141.456C420.068,60.153,449.353,21.3,488.01,21.3c29.28,0,44.51,28.38,52.709,61.56h9.958V12.13h-9.958c-2.339,6.109-8.784,6.109-14.64,6.109-12.886,0-23.428-6.549-38.657-6.549C420.068,11.69,362.673,81.108,362.673,161c0,80.335,50.366,155.865,122.409,155.865,52.713,0,72.624-44.97,76.141-64.617H546.575c-8.78,26.635-26.937,54.575-61.493,54.575" transform="translate(1014.669 30.794)" fill="none" stroke="#dcba7b" stroke-width="1"/>
        <path id="Path_41911" data-name="Path 41911" d="M655.353,301.16c-20.5,0-21.085-12.658-21.085-23.139V41.388c0-8.729.589-21.391,21.67-21.391h2.932V13.012H555.784V20h4.1c23.429,0,23.429,12.662,23.429,21.391V152.72H496.63V41.388c0-8.729.585-21.391,21.67-21.391h2.932V13.012H418.15V20h4.1c22.843,0,22.843,12.662,22.843,21.391V278.021c0,10.481-.589,23.139-22.259,23.139h-5.856v7.421H522.4V301.16H517.13c-19.915,0-20.5-12.658-20.5-23.139V164.073h86.684V278.021c0,10.481-1.17,23.139-22.255,23.139h-6.441v7.421H660.04V301.16Z" transform="translate(1166.595 34.277)" fill="none" stroke="#dcba7b" stroke-width="1"/>
      </g>
    </g>
  </g>
</svg>
