<svg xmlns="http://www.w3.org/2000/svg" xmlns:xlink="http://www.w3.org/1999/xlink" width="85.485" height="35.633" viewBox="0 0 85.485 35.633">
  <defs>
    <clipPath id="clip-path">
      <rect id="Rectangle_249" data-name="Rectangle 249" width="85.485" height="35.633" transform="translate(0 0)" fill="#d0c8b9"/>
    </clipPath>
  </defs>
  <g id="Group_369" data-name="Group 369" transform="translate(0 0.002)">
    <g id="Group_365" data-name="Group 365" transform="translate(0 -0.002)" clip-path="url(#clip-path)">
      <path id="Path_41848" data-name="Path 41848" d="M1054.59,0c3.042.04,5.567.059,8.092.112,2.094.044,4.189.116,6.282.2,1.345.053,2.689.136,4.032.232a8.247,8.247,0,0,1,3.018.69A6.058,6.058,0,0,1,1079.2,4.6a14.174,14.174,0,0,1,.943,4.024c.106,1.358.237,2.714.316,4.073.062,1.07.08,2.143.087,3.215.011,1.687.025,3.374-.014,5.06-.033,1.389-.126,2.777-.221,4.164-.065.946-.143,1.894-.279,2.831a11.259,11.259,0,0,1-1.271,3.995,6.067,6.067,0,0,1-3.764,2.841,10.656,10.656,0,0,1-2.314.341q-1.6.1-3.2.188c-.831.043-1.663.083-2.495.1-3.027.073-6.055.179-9.083.195-3.307.018-6.615-.037-9.923-.086-2.151-.032-4.3-.1-6.451-.177-1.178-.041-2.357-.091-3.529-.2a13.822,13.822,0,0,1-3.416-.622,5.776,5.776,0,0,1-3.6-3.416,14.148,14.148,0,0,1-.861-3.138c-.1-.684-.156-1.375-.212-2.064-.083-1.024-.169-2.048-.219-3.073s-.073-2.043-.082-3.064c-.013-1.519-.027-3.039.006-4.557.03-1.384.1-2.767.19-4.149.073-1.113.161-2.228.314-3.332a10.784,10.784,0,0,1,1.379-4.217,6.082,6.082,0,0,1,3.742-2.69A11.751,11.751,0,0,1,1037.683.5q2.091-.124,4.183-.223c1.01-.047,2.021-.087,3.032-.107,3.4-.067,6.8-.124,9.691-.176m4.124,13.437V6h-2.867c-.216,0-.217,0-.217.221q0,4.456,0,8.912,0,6.76,0,13.519c0,.224,0,.224.229.225h2.866v-1.7l.136.158a6.233,6.233,0,0,0,1.2,1.109,3.257,3.257,0,0,0,2.271.632,2.538,2.538,0,0,0,2.211-2.021,10.953,10.953,0,0,0,.306-2.8c.009-2.423,0-4.847.007-7.27a13.233,13.233,0,0,0-.309-3.074,3.608,3.608,0,0,0-.733-1.56,2.509,2.509,0,0,0-2.743-.668,4.872,4.872,0,0,0-2.035,1.4c-.1.108-.2.22-.328.364m-14.686-1.62v.209q0,2.212,0,4.423,0,4.54.006,9.081a6.819,6.819,0,0,0,.26,1.985,2.045,2.045,0,0,0,1.839,1.587,2.9,2.9,0,0,0,1.81-.42,7.4,7.4,0,0,0,1.72-1.48c.045-.049.092-.1.166-.177,0,.588.005,1.124,0,1.66,0,.152.039.2.2.2.961-.007,1.922,0,2.883,0,.054,0,.109-.006.173-.009V11.815h-3.248v.242q0,6.266,0,12.532a.4.4,0,0,1-.044.237,11.788,11.788,0,0,1-.913,1.043,1.685,1.685,0,0,1-.681.367.638.638,0,0,1-.893-.577,1.285,1.285,0,0,1-.009-.217q0-6.7,0-13.4v-.224Zm26.125,9.045h5.906c.24,0,.24,0,.24-.247,0-1.05,0-2.1,0-3.149a10.092,10.092,0,0,0-.247-2.425,4.357,4.357,0,0,0-2.331-3.025,4.656,4.656,0,0,0-2.856-.4,4.237,4.237,0,0,0-3.4,2.559,7.264,7.264,0,0,0-.565,3c-.015,2.155-.01,4.311,0,6.466a7.64,7.64,0,0,0,.266,2,4.437,4.437,0,0,0,2.327,2.959,5.1,5.1,0,0,0,3.512.335,4.16,4.16,0,0,0,3.17-3.542c.1-.794.083-1.6.118-2.406a.493.493,0,0,0-.015-.1.529.529,0,0,0-.075-.012c-1.011,0-2.022,0-3.034,0-.119,0-.136.056-.136.155,0,.575.01,1.151-.009,1.725a2.179,2.179,0,0,1-.132.666,1.193,1.193,0,0,1-1.22.836,1.236,1.236,0,0,1-1.288-.819,3.6,3.6,0,0,1-.228-1.378c-.005-1.005,0-2.01,0-3.015V20.86m-32.774,8a.42.42,0,0,0,.074.019c1.078,0,2.157,0,3.235,0,.04,0,.1-.066.115-.113a.455.455,0,0,0,0-.166V9.495c0-.233,0-.234.237-.234h3.5a.891.891,0,0,0,.016-.1c0-1.005,0-2.01,0-3.016,0-.115-.048-.141-.151-.14-.385,0-.771.005-1.156.006l-9.236.005h-.215v3.25h3.309c.312,0,.264-.009.264.257q0,9.55,0,19.1v.239" transform="translate(-995.07 0.002)" fill="#d0c8b9"/>
      <path id="Path_41849" data-name="Path 41849" d="M690.758,347.548v17.2h-3.224v-1.817l-.037-.015-.162.179a6.842,6.842,0,0,1-1.93,1.587,2.762,2.762,0,0,1-1.756.277A2.014,2.014,0,0,1,682,363.452a6.4,6.4,0,0,1-.269-1.933q-.008-6.92-.006-13.839c0-.039,0-.077.006-.13h3.229v.232q0,6.769,0,13.538a1.526,1.526,0,0,0,.005.2.66.66,0,0,0,.929.613,1.475,1.475,0,0,0,.612-.323c.349-.342.659-.724.975-1.1a.4.4,0,0,0,.043-.237q0-6.341,0-12.683v-.243Z" transform="translate(-658.862 -335.89)" fill="#d0c8b9"/>
      <path id="Path_41850" data-name="Path 41850" d="M7.679,197.152H4.265v-.212q0-4.465,0-8.93a1.514,1.514,0,0,0-.065-.442q-2.023-6.5-4.054-13C.1,174.435.053,174.3,0,174.135H.2c1.067,0,2.135,0,3.2,0,.148,0,.2.051.232.185q1.138,4.293,2.284,8.583a.327.327,0,0,0,.075.144c.04-.146.081-.291.12-.437q1.105-4.163,2.208-8.326c.027-.1.061-.148.176-.147,1.106,0,2.213,0,3.319,0,.033,0,.065,0,.114.009-.02.079-.034.148-.055.214q-2.066,6.609-4.13,13.218a1.344,1.344,0,0,0-.06.393q0,4.473,0,8.947v.235" transform="translate(0 -168.291)" fill="#d0c8b9"/>
      <path id="Path_41851" data-name="Path 41851" d="M344.956,352.2c0,1.212.016,2.424-.005,3.635a6.286,6.286,0,0,1-.528,2.64,4.3,4.3,0,0,1-3.284,2.429,4.523,4.523,0,0,1-4.6-2.014,4.762,4.762,0,0,1-.663-1.967,13.125,13.125,0,0,1-.112-1.568c-.009-2.273-.013-4.545.012-6.818a6.551,6.551,0,0,1,.634-2.938,3.9,3.9,0,0,1,3.257-2.234,5.3,5.3,0,0,1,2.49.276,4.017,4.017,0,0,1,2.495,2.842,9.669,9.669,0,0,1,.316,2.668q0,1.524,0,3.049h-.011m-5.961-.053h-.031c0,1.329,0,2.657,0,3.986a2.78,2.78,0,0,0,.252,1.3,1.2,1.2,0,0,0,1.16.677,1.15,1.15,0,0,0,1.129-.694,2.685,2.685,0,0,0,.221-.833c.036-.393,0-.791,0-1.187q0-3.015,0-6.031c0-.346.035-.693.019-1.038a5.977,5.977,0,0,0-.127-1.141,1.19,1.19,0,0,0-1.236-.949,1.218,1.218,0,0,0-1.283.915,2.308,2.308,0,0,0-.114.589c-.016.378,0,.758,0,1.137q0,1.633,0,3.267" transform="translate(-324.496 -331.815)" fill="#d0c8b9"/>
      <path id="Path_41852" data-name="Path 41852" d="M1897.551,435q0-2.5,0-4.992a.364.364,0,0,1,.145-.312,2.5,2.5,0,0,1,.964-.555c1.063-.273,1.545.159,1.7,1.029a4.363,4.363,0,0,1,.071.732q.006,4.079-.006,8.158a3.858,3.858,0,0,1-.133.924,1.135,1.135,0,0,1-1.532.906,2.485,2.485,0,0,1-1.142-.669.324.324,0,0,1-.058-.212q0-2.5,0-5.009Z" transform="translate(-1833.9 -414.669)" fill="#d0c8b9"/>
      <path id="Path_41853" data-name="Path 41853" d="M2241.416,433.314h-2.865a.464.464,0,0,1-.01-.071c.01-.809.011-1.618.037-2.427a2.373,2.373,0,0,1,.137-.651.939.939,0,0,1,.806-.688,3.451,3.451,0,0,1,.865-.017,1.073,1.073,0,0,1,.957,1.03,4.257,4.257,0,0,1,.07.681c.009.708,0,1.417,0,2.144" transform="translate(-2163.456 -415.035)" fill="#d0c8b9"/>
    </g>
  </g>
</svg>
