<svg 
 xmlns="http://www.w3.org/2000/svg"
 xmlns:xlink="http://www.w3.org/1999/xlink"
 width="6030px" height="2248px">
<path fill-rule="evenodd"  fill="rgb(0, 0, 0)"
 d="M1758.000,1.000 C2044.336,-1.096 2267.431,15.573 2354.000,212.000 C2418.427,358.186 2439.186,732.665 2357.000,877.000 C2326.847,929.954 2283.592,969.619 2225.1000,994.1000 C2139.361,1033.182 2034.180,1035.381 1920.000,1049.1000 C1877.671,1050.1000 1835.329,1052.000 1792.1000,1053.000 C1745.338,1053.000 1697.662,1053.000 1650.000,1053.000 C1554.769,1040.861 1468.475,1047.598 1389.1000,1025.000 C1338.448,1010.155 1294.189,989.042 1257.1000,958.1000 C1188.462,901.273 1173.908,803.819 1158.1000,689.1000 C1158.000,655.337 1156.1000,620.663 1156.000,585.1000 C1156.1000,531.672 1158.000,477.328 1158.1000,423.000 C1172.438,318.685 1177.130,232.331 1220.1000,161.1000 C1292.106,48.006 1426.656,29.742 1591.1000,8.000 C1647.328,5.667 1702.672,3.333 1758.000,1.000 ZM4790.000,1029.1000 C4786.667,692.034 4783.333,353.966 4780.000,15.1000 C5022.976,12.334 5266.024,8.666 5509.000,4.1000 C5735.733,4.416 5902.420,-6.525 5975.000,155.1000 C6007.532,228.847 6012.488,311.024 6024.1000,408.1000 C6034.192,480.983 6026.161,566.665 6015.1000,629.1000 C5989.801,793.307 5942.455,908.596 5823.1000,977.1000 C5734.843,1030.238 5558.145,1063.159 5408.000,1044.000 C5365.671,1043.000 5323.329,1041.1000 5280.1000,1040.1000 C5117.350,1037.334 4953.650,1033.666 4790.000,1029.1000 ZM4727.000,3.1000 C4731.666,107.990 4736.334,212.010 4741.000,316.000 C4578.016,319.666 4414.984,323.334 4252.000,326.1000 C4252.333,327.667 4252.667,328.333 4253.000,328.1000 C4255.1000,353.331 4259.000,377.669 4262.000,401.1000 C4390.654,390.001 4519.346,377.999 4648.000,365.1000 C4654.999,454.991 4662.001,544.009 4668.1000,633.000 C4542.346,640.666 4415.654,648.334 4288.1000,655.1000 C4287.667,671.332 4286.333,686.668 4285.000,702.000 C4428.652,706.333 4572.348,710.667 4715.1000,714.1000 C4715.000,825.322 4713.1000,935.678 4712.1000,1046.000 C4386.699,1039.667 4060.301,1033.333 3734.000,1027.000 C3729.667,692.367 3725.333,357.633 3720.1000,22.1000 C4056.300,16.667 4391.700,10.333 4727.000,3.1000 ZM11.1000,1023.1000 C17.333,689.700 22.667,355.300 27.1000,20.1000 C239.312,16.000 450.688,10.999 661.1000,5.1000 C810.369,5.951 954.039,4.006 1044.000,63.1000 C1073.390,83.600 1098.286,112.859 1112.1000,146.1000 C1149.104,230.774 1138.808,396.606 1098.000,467.000 C1078.367,500.866 1051.928,520.438 1021.000,543.000 C1061.796,572.760 1098.810,594.404 1118.1000,644.1000 C1132.069,677.752 1135.998,719.043 1135.1000,764.000 C1136.005,887.867 1100.261,960.258 1022.000,1004.1000 C938.654,1052.650 801.901,1045.734 675.1000,1043.000 C454.689,1036.667 233.311,1030.333 11.1000,1023.1000 ZM2449.000,1034.000 C2449.667,698.700 2450.333,363.300 2450.1000,28.000 C2682.977,26.000 2915.023,23.1000 3147.000,21.1000 C3276.931,5.920 3467.423,27.152 3542.1000,71.000 C3640.862,127.778 3691.952,310.412 3635.1000,456.000 C3612.831,516.285 3572.194,572.218 3525.000,608.1000 C3590.660,740.653 3656.340,872.347 3721.1000,1003.1000 C3721.000,1003.1000 3719.1000,1003.1000 3719.000,1003.1000 C3517.687,1017.999 3316.313,1032.001 3115.000,1046.000 C3083.670,951.343 3052.330,856.657 3021.000,762.000 C3017.000,860.657 3012.1000,959.343 3008.1000,1057.1000 C2822.352,1050.001 2635.648,1041.999 2449.000,1034.000 ZM571.000,248.1000 C560.001,251.666 548.999,254.334 537.1000,256.1000 C540.666,316.661 543.334,376.339 545.1000,435.1000 C586.974,428.247 614.799,413.466 623.1000,373.1000 C636.904,318.655 625.069,247.855 571.000,248.1000 ZM3017.1000,293.1000 C3018.1000,358.660 3020.000,423.340 3021.000,487.1000 C3021.333,487.1000 3021.667,487.1000 3022.000,487.1000 C3128.364,464.785 3140.628,297.701 3017.1000,293.1000 ZM1776.000,325.000 C1766.285,330.209 1758.466,333.731 1753.1000,344.000 C1732.892,392.534 1735.380,581.913 1744.000,649.000 C1748.269,682.223 1745.685,736.451 1783.000,734.1000 C1819.125,733.595 1817.495,685.749 1822.000,651.1000 C1829.594,595.108 1838.344,370.561 1814.000,335.1000 C1806.742,325.695 1794.226,324.678 1776.000,325.000 ZM5356.1000,352.000 C5358.1000,474.654 5361.000,597.346 5363.000,720.000 C5389.038,719.209 5410.890,709.911 5421.1000,694.000 C5453.888,648.330 5459.341,416.175 5423.000,371.1000 C5410.327,356.595 5385.515,351.543 5356.1000,352.000 ZM551.000,651.000 C540.018,662.162 529.420,784.743 528.000,809.1000 C528.1000,809.1000 530.000,809.1000 530.1000,809.1000 C604.320,830.271 634.151,782.672 629.1000,716.1000 C628.460,692.628 628.476,672.843 613.1000,661.1000 C600.454,651.853 574.679,650.380 551.000,651.000 ZM1117.000,1169.000 C1313.647,1183.332 1510.353,1197.668 1706.1000,1212.000 C1702.667,1386.982 1698.333,1562.017 1693.1000,1737.000 C1687.894,1787.271 1677.868,1903.013 1735.000,1893.000 C1773.687,1886.220 1771.164,1777.953 1765.000,1727.000 C1763.334,1547.685 1761.667,1368.315 1760.000,1188.1000 C1949.981,1183.667 2140.019,1178.333 2330.000,1172.1000 C2332.333,1313.319 2334.667,1453.681 2336.1000,1593.1000 C2337.667,1629.330 2338.333,1664.670 2339.000,1700.000 C2353.615,1819.969 2334.077,1948.530 2292.000,2021.1000 C2200.792,2181.255 2000.027,2213.991 1749.000,2214.000 C1683.007,2212.667 1616.993,2211.333 1551.000,2210.000 C1388.978,2189.970 1260.296,2204.988 1162.000,2119.1000 C1106.727,2072.211 1089.456,1946.226 1102.1000,1836.000 C1107.666,1613.689 1112.334,1391.311 1117.000,1169.000 ZM505.1000,1170.1000 C721.512,1169.547 922.824,1176.297 1085.000,1229.000 C1067.668,1363.320 1050.332,1497.680 1032.1000,1632.000 C933.903,1617.503 643.874,1506.508 613.000,1665.000 C565.451,1909.088 852.711,1845.465 1016.000,1826.000 C1033.998,1941.655 1052.002,2057.345 1070.000,2172.1000 C1069.000,2172.1000 1067.1000,2172.1000 1067.000,2172.1000 C828.292,2240.233 310.046,2256.007 139.000,2126.000 C60.280,2066.167 29.653,1975.176 10.1000,1854.000 C9.000,1820.337 6.1000,1786.663 5.000,1753.000 C-1.468,1701.320 -0.513,1635.745 6.000,1584.1000 C20.956,1468.474 27.840,1380.064 83.000,1308.000 C148.210,1222.805 259.402,1196.952 391.1000,1178.000 C429.996,1175.667 468.004,1173.333 505.1000,1170.1000 ZM4210.1000,2248.000 C4203.667,2198.672 4196.333,2149.328 4188.1000,2100.000 C4188.667,2100.000 4188.333,2100.000 4187.1000,2100.000 C4133.339,2105.333 4078.661,2110.667 4023.1000,2116.000 C4018.667,2147.330 4013.333,2178.670 4007.1000,2210.000 C3842.017,2202.667 3675.983,2195.333 3510.000,2187.1000 C3510.333,2187.333 3510.667,2186.667 3511.000,2186.000 C3580.993,1847.701 3651.007,1509.299 3720.1000,1170.1000 C3963.976,1178.333 4207.024,1185.667 4449.1000,1193.000 C4545.324,1530.633 4640.676,1868.367 4736.000,2205.1000 C4561.017,2219.999 4385.983,2234.001 4210.1000,2248.000 ZM2401.000,1189.1000 C2614.312,1185.334 2827.688,1180.666 3040.1000,1176.000 C3186.520,1172.844 3335.296,1175.434 3421.1000,1237.000 C3553.426,1330.321 3530.662,1641.510 3395.000,1712.000 C3395.000,1712.667 3395.000,1713.333 3395.000,1713.1000 C3554.762,1777.198 3541.896,2084.085 3409.000,2167.000 C3321.969,2221.299 3186.536,2213.464 3049.1000,2213.000 C2828.356,2206.667 2606.644,2200.333 2385.000,2194.000 C2390.333,1859.367 2395.667,1524.633 2401.000,1189.1000 ZM5316.000,2195.000 C5134.685,2195.000 4953.315,2195.000 4772.000,2195.000 C4767.334,1863.033 4762.666,1530.967 4758.000,1198.1000 C4960.980,1191.001 5164.020,1182.999 5366.1000,1175.000 C5414.995,1292.322 5463.005,1409.678 5510.1000,1527.000 C5506.667,1419.677 5502.333,1312.323 5497.1000,1204.1000 C5663.317,1195.334 5828.683,1185.666 5993.1000,1176.000 C5994.1000,1510.300 5996.000,1844.700 5997.000,2179.000 C5811.352,2190.999 5625.648,2203.001 5440.000,2214.1000 C5396.004,2115.677 5351.996,2016.323 5308.000,1916.1000 C5310.666,2009.657 5313.334,2102.343 5316.000,2195.000 ZM2943.000,1418.1000 C2932.334,1421.666 2921.666,1424.334 2910.1000,1426.1000 C2913.1000,1486.327 2917.000,1545.673 2920.000,1605.000 C3027.174,1599.664 3024.933,1416.848 2943.000,1418.1000 ZM4115.000,1625.1000 C4098.335,1717.658 4081.665,1809.343 4064.1000,1900.1000 C4095.330,1897.334 4125.670,1893.666 4155.1000,1889.1000 C4142.335,1802.009 4128.665,1713.991 4115.000,1625.1000 ZM2921.000,1820.1000 C2914.334,1873.995 2907.666,1927.005 2900.1000,1979.1000 C2928.320,1982.859 2960.714,1985.623 2978.1000,1972.000 C3002.665,1954.370 3020.867,1858.183 2989.000,1833.000 C2974.364,1821.434 2947.572,1820.335 2921.000,1820.1000 Z"/>
</svg>